<?xml version="1.0" encoding="UTF-8" standalone="no"?>
<svg
   xmlns:dc="http://purl.org/dc/elements/1.1/"
   xmlns:cc="http://creativecommons.org/ns#"
   xmlns:rdf="http://www.w3.org/1999/02/22-rdf-syntax-ns#"
   xmlns:svg="http://www.w3.org/2000/svg"
   xmlns="http://www.w3.org/2000/svg"
   xmlns:sodipodi="http://sodipodi.sourceforge.net/DTD/sodipodi-0.dtd"
   xmlns:inkscape="http://www.inkscape.org/namespaces/inkscape"
   inkscape:export-ydpi="945.22998"
   inkscape:export-xdpi="945.22998"
   inkscape:export-filename="C:\Projects\DockerRunner\images\icon.png"
   height="26"
   width="26"
   role="img"
   viewBox="0 0 26 26"
   version="1.1"
   id="svg14"
   sodipodi:docname="icon.svg"
   inkscape:version="1.0 (4035a4fb49, 2020-05-01)">
  <metadata
     id="metadata20">
    <rdf:RDF>
      <cc:Work
         rdf:about="">
        <dc:format>image/svg+xml</dc:format>
        <dc:type
           rdf:resource="http://purl.org/dc/dcmitype/StillImage" />
        <dc:title>Docker icon</dc:title>
      </cc:Work>
    </rdf:RDF>
  </metadata>
  <defs
     id="defs18" />
  <sodipodi:namedview
     inkscape:pagecheckerboard="true"
     fit-margin-left="2.6"
     inkscape:document-rotation="0"
     pagecolor="#ffffff"
     bordercolor="#666666"
     borderopacity="1"
     objecttolerance="10"
     gridtolerance="10"
     guidetolerance="10"
     inkscape:pageopacity="0"
     inkscape:pageshadow="2"
     inkscape:window-width="1605"
     inkscape:window-height="1128"
     id="namedview16"
     showgrid="false"
     inkscape:zoom="15.3125"
     inkscape:cx="3.971769"
     inkscape:cy="8.1104292"
     inkscape:window-x="92"
     inkscape:window-y="465"
     inkscape:window-maximized="0"
     inkscape:current-layer="svg14">
    <inkscape:grid
       type="xygrid"
       id="grid861" />
  </sodipodi:namedview>
  <title
     id="title10">Docker icon</title>
  <path
     d="M 12.029297 3.2851562 A 0.185 0.185 0 0 0 11.84375 3.4707031 L 11.84375 5.3574219 C 11.84375 5.4594219 11.926296 5.5429687 12.029297 5.5429688 L 14.146484 5.5429688 A 0.186 0.186 0 0 0 14.333984 5.3574219 L 14.333984 3.4707031 A 0.186 0.186 0 0 0 14.146484 3.2851562 L 12.029297 3.2851562 z M 6.1367188 6 A 0.186 0.186 0 0 0 5.9492188 6.1855469 L 5.9492188 8.0722656 C 5.9492188 8.1742656 6.0347187 8.2568125 6.1367188 8.2578125 L 8.2558594 8.2578125 A 0.186 0.186 0 0 0 8.4394531 8.0722656 L 8.4394531 6.1855469 A 0.185 0.185 0 0 0 8.2558594 6 L 6.1367188 6 z M 9.0996094 6 A 0.185 0.185 0 0 0 8.9140625 6.1855469 L 8.9140625 8.0722656 C 8.9140625 8.1742656 8.9976094 8.2568125 9.0996094 8.2578125 L 11.21875 8.2578125 A 0.186 0.186 0 0 0 11.402344 8.0722656 L 11.402344 6.1855469 A 0.185 0.185 0 0 0 11.21875 6 L 9.0996094 6 z M 12.029297 6 A 0.185 0.185 0 0 0 11.84375 6.1855469 L 11.84375 8.0722656 C 11.84375 8.1742656 11.926296 8.2568125 12.029297 8.2578125 L 14.146484 8.2578125 A 0.187 0.187 0 0 0 14.333984 8.0722656 L 14.333984 6.1855469 A 0.186 0.186 0 0 0 14.146484 6 L 12.029297 6 z M 19.738281 6.5976562 L 19.513672 6.9238281 C 19.229672 7.3618281 19.022391 7.8474688 18.900391 8.3554688 C 18.670391 9.3254688 18.811688 10.236625 19.304688 11.015625 C 18.709688 11.347625 17.754546 11.428547 17.560547 11.435547 L 1.7519531 11.435547 A 0.751 0.751 0 0 0 1.0019531 12.183594 A 11.376 11.376 0 0 0 1.6933594 16.246094 C 2.2383594 17.674094 3.0485156 18.725141 4.1035156 19.369141 C 5.2835156 20.092141 7.2039062 20.505859 9.3789062 20.505859 C 10.361907 20.508859 11.341594 20.420234 12.308594 20.240234 A 12.248 12.248 0 0 0 14.894531 19.462891 L 14.890625 18.400391 L 14.869141 13.623047 L 19.017578 15.994141 L 19.214844 16.107422 C 20.175769 14.854366 20.817407 13.523529 21.294922 12.316406 L 21.515625 12.316406 C 22.887625 12.316406 23.730313 11.766641 24.195312 11.306641 C 24.504313 11.013641 24.745344 10.657719 24.902344 10.261719 L 25 9.9726562 L 24.763672 9.7851562 C 24.698672 9.7341562 24.090594 9.2753906 22.808594 9.2753906 C 22.470594 9.2763906 22.132828 9.3062812 21.798828 9.3632812 C 21.550828 7.6632812 20.146984 6.832875 20.083984 6.796875 L 19.738281 6.5976562 z M 3.2167969 8.7148438 A 0.185 0.185 0 0 0 3.03125 8.9003906 L 3.03125 10.789062 C 3.03125 10.891063 3.1137969 10.974609 3.2167969 10.974609 L 5.3359375 10.974609 A 0.185 0.185 0 0 0 5.5195312 10.789062 L 5.5195312 8.9023438 A 0.185 0.185 0 0 0 5.3359375 8.7148438 L 3.2167969 8.7148438 z M 6.1367188 8.7148438 A 0.186 0.186 0 0 0 5.9492188 8.9023438 L 5.9492188 10.789062 C 5.9492188 10.891063 6.0347187 10.974609 6.1367188 10.974609 L 8.2558594 10.974609 A 0.185 0.185 0 0 0 8.4394531 10.789062 L 8.4394531 8.9023438 A 0.185 0.185 0 0 0 8.2558594 8.7148438 L 6.1367188 8.7148438 z M 9.0996094 8.7148438 A 0.185 0.185 0 0 0 8.9140625 8.9003906 L 8.9140625 10.789062 C 8.9140625 10.891063 8.9976094 10.974609 9.0996094 10.974609 L 11.21875 10.974609 A 0.185 0.185 0 0 0 11.402344 10.789062 L 11.402344 8.9023438 A 0.185 0.185 0 0 0 11.21875 8.7148438 L 9.0996094 8.7148438 z M 12.029297 8.7148438 A 0.185 0.185 0 0 0 11.84375 8.9003906 L 11.84375 10.789062 C 11.84375 10.891063 11.926296 10.974609 12.029297 10.974609 L 14.146484 10.974609 A 0.186 0.186 0 0 0 14.333984 10.789062 L 14.333984 8.9023438 A 0.186 0.186 0 0 0 14.146484 8.7148438 L 12.029297 8.7148438 z M 14.982422 8.7148438 A 0.185 0.185 0 0 0 14.798828 8.9003906 L 14.798828 10.789062 C 14.798828 10.891063 14.880422 10.974609 14.982422 10.974609 L 17.101562 10.974609 A 0.186 0.186 0 0 0 17.287109 10.789062 L 17.287109 8.9023438 A 0.186 0.186 0 0 0 17.101562 8.7148438 L 14.982422 8.7148438 z "
     id="path12" />
  <path
     d="m 15.389334,24.017538 -0.02128,-4.779016 -0.02128,-4.779015 4.149388,2.371079 4.149389,2.371079 -4.128109,2.407936 z"
     inkscape:transform-center-y="0.012286934"
     inkscape:transform-center-x="-1.3689429"
     inkscape:randomized="0"
     inkscape:rounded="0"
     inkscape:flatsided="false"
     sodipodi:arg2="3.13714"
     sodipodi:arg1="2.0899424"
     sodipodi:r2="2.7591932"
     sodipodi:r1="5.5183864"
     sodipodi:cy="19.226236"
     sodipodi:cx="18.12722"
     sodipodi:sides="3"
     id="path863-8"
     style="fill:#099cec;fill-opacity:1;stroke:none;stroke-width:0.593;stroke-linejoin:miter;stroke-miterlimit:4;stroke-dasharray:none;stroke-opacity:1"
     sodipodi:type="star" />
</svg>
